<mxfile host="app.diagrams.net" modified="2024-03-21T04:52:53.584Z" agent="Mozilla/5.0 (Windows NT 10.0; Win64; x64) AppleWebKit/537.36 (KHTML, like Gecko) Chrome/123.0.0.0 Safari/537.36" etag="XDemlmB8T0Tp6wQZqqly" version="24.0.7" type="device">
  <diagram id="R2lEEEUBdFMjLlhIrx00" name="Page-1">
    <mxGraphModel dx="3475" dy="2525" grid="1" gridSize="10" guides="1" tooltips="1" connect="1" arrows="1" fold="1" page="1" pageScale="1" pageWidth="850" pageHeight="1100" math="0" shadow="0" extFonts="Permanent Marker^https://fonts.googleapis.com/css?family=Permanent+Marker">
      <root>
        <mxCell id="0" />
        <mxCell id="1" parent="0" />
        <mxCell id="Wo3q0FR-ISAkBuYLNfdj-16" style="edgeStyle=orthogonalEdgeStyle;rounded=0;orthogonalLoop=1;jettySize=auto;html=1;exitX=0;exitY=0.5;exitDx=0;exitDy=0;entryX=1;entryY=0.5;entryDx=0;entryDy=0;" parent="1" source="Wo3q0FR-ISAkBuYLNfdj-4" target="Wo3q0FR-ISAkBuYLNfdj-15" edge="1">
          <mxGeometry relative="1" as="geometry" />
        </mxCell>
        <mxCell id="Wo3q0FR-ISAkBuYLNfdj-4" value="Cargo" style="rounded=1;whiteSpace=wrap;html=1;" parent="1" vertex="1">
          <mxGeometry x="-190" y="70" width="120" height="60" as="geometry" />
        </mxCell>
        <mxCell id="Wo3q0FR-ISAkBuYLNfdj-5" value="Proveedor" style="rounded=1;whiteSpace=wrap;html=1;" parent="1" vertex="1">
          <mxGeometry x="260" y="1350" width="120" height="60" as="geometry" />
        </mxCell>
        <mxCell id="ElhmosrxKKZjNARZ_xmM-21" style="edgeStyle=orthogonalEdgeStyle;rounded=0;orthogonalLoop=1;jettySize=auto;html=1;entryX=0.5;entryY=0;entryDx=0;entryDy=0;" parent="1" source="Wo3q0FR-ISAkBuYLNfdj-6" target="Wo3q0FR-ISAkBuYLNfdj-142" edge="1">
          <mxGeometry relative="1" as="geometry" />
        </mxCell>
        <mxCell id="ElhmosrxKKZjNARZ_xmM-22" style="edgeStyle=orthogonalEdgeStyle;rounded=0;orthogonalLoop=1;jettySize=auto;html=1;" parent="1" source="Wo3q0FR-ISAkBuYLNfdj-6" target="Wo3q0FR-ISAkBuYLNfdj-141" edge="1">
          <mxGeometry relative="1" as="geometry">
            <Array as="points">
              <mxPoint x="400" y="-100" />
              <mxPoint x="400" y="-100" />
            </Array>
          </mxGeometry>
        </mxCell>
        <mxCell id="Wo3q0FR-ISAkBuYLNfdj-6" value="Marcas" style="rounded=1;whiteSpace=wrap;html=1;" parent="1" vertex="1">
          <mxGeometry x="305" y="-100" width="120" height="60" as="geometry" />
        </mxCell>
        <mxCell id="Wo3q0FR-ISAkBuYLNfdj-47" style="edgeStyle=orthogonalEdgeStyle;rounded=0;orthogonalLoop=1;jettySize=auto;html=1;" parent="1" source="Wo3q0FR-ISAkBuYLNfdj-7" target="Wo3q0FR-ISAkBuYLNfdj-21" edge="1">
          <mxGeometry relative="1" as="geometry" />
        </mxCell>
        <mxCell id="Wo3q0FR-ISAkBuYLNfdj-48" style="edgeStyle=orthogonalEdgeStyle;rounded=0;orthogonalLoop=1;jettySize=auto;html=1;exitX=0.5;exitY=0;exitDx=0;exitDy=0;" parent="1" source="Wo3q0FR-ISAkBuYLNfdj-7" edge="1">
          <mxGeometry relative="1" as="geometry">
            <mxPoint y="320" as="targetPoint" />
          </mxGeometry>
        </mxCell>
        <mxCell id="Wo3q0FR-ISAkBuYLNfdj-52" style="edgeStyle=orthogonalEdgeStyle;rounded=0;orthogonalLoop=1;jettySize=auto;html=1;exitX=1;exitY=0.5;exitDx=0;exitDy=0;entryX=0.5;entryY=0;entryDx=0;entryDy=0;" parent="1" source="Wo3q0FR-ISAkBuYLNfdj-7" target="Wo3q0FR-ISAkBuYLNfdj-51" edge="1">
          <mxGeometry relative="1" as="geometry" />
        </mxCell>
        <mxCell id="Wo3q0FR-ISAkBuYLNfdj-7" value="Empleado" style="rounded=1;whiteSpace=wrap;html=1;" parent="1" vertex="1">
          <mxGeometry x="-60" y="380" width="120" height="60" as="geometry" />
        </mxCell>
        <mxCell id="Wo3q0FR-ISAkBuYLNfdj-8" value="Categoria" style="rounded=1;whiteSpace=wrap;html=1;" parent="1" vertex="1">
          <mxGeometry x="260" y="30" width="120" height="60" as="geometry" />
        </mxCell>
        <mxCell id="OyvCqf2Fwu4o1YcODrox-2" style="edgeStyle=orthogonalEdgeStyle;rounded=0;orthogonalLoop=1;jettySize=auto;html=1;exitX=0;exitY=0;exitDx=0;exitDy=0;" parent="1" source="Wo3q0FR-ISAkBuYLNfdj-9" target="OyvCqf2Fwu4o1YcODrox-1" edge="1">
          <mxGeometry relative="1" as="geometry" />
        </mxCell>
        <mxCell id="Wo3q0FR-ISAkBuYLNfdj-9" value="Cliente" style="rounded=1;whiteSpace=wrap;html=1;" parent="1" vertex="1">
          <mxGeometry x="1330" y="60" width="120" height="60" as="geometry" />
        </mxCell>
        <mxCell id="ElhmosrxKKZjNARZ_xmM-3" style="edgeStyle=orthogonalEdgeStyle;rounded=0;orthogonalLoop=1;jettySize=auto;html=1;" parent="1" source="Wo3q0FR-ISAkBuYLNfdj-10" target="Wo3q0FR-ISAkBuYLNfdj-56" edge="1">
          <mxGeometry relative="1" as="geometry">
            <Array as="points">
              <mxPoint x="200" y="700" />
              <mxPoint x="200" y="840" />
              <mxPoint x="-130" y="840" />
            </Array>
          </mxGeometry>
        </mxCell>
        <mxCell id="ElhmosrxKKZjNARZ_xmM-4" style="edgeStyle=orthogonalEdgeStyle;rounded=0;orthogonalLoop=1;jettySize=auto;html=1;entryX=1;entryY=0;entryDx=0;entryDy=0;" parent="1" source="Wo3q0FR-ISAkBuYLNfdj-10" target="Wo3q0FR-ISAkBuYLNfdj-158" edge="1">
          <mxGeometry relative="1" as="geometry">
            <Array as="points">
              <mxPoint x="350" y="740" />
              <mxPoint x="240" y="740" />
              <mxPoint x="240" y="890" />
              <mxPoint x="-48" y="890" />
            </Array>
          </mxGeometry>
        </mxCell>
        <mxCell id="ElhmosrxKKZjNARZ_xmM-5" style="edgeStyle=orthogonalEdgeStyle;rounded=0;orthogonalLoop=1;jettySize=auto;html=1;entryX=1;entryY=0;entryDx=0;entryDy=0;" parent="1" source="Wo3q0FR-ISAkBuYLNfdj-10" target="Wo3q0FR-ISAkBuYLNfdj-59" edge="1">
          <mxGeometry relative="1" as="geometry">
            <Array as="points">
              <mxPoint x="360" y="930" />
              <mxPoint x="57" y="930" />
            </Array>
          </mxGeometry>
        </mxCell>
        <mxCell id="ElhmosrxKKZjNARZ_xmM-7" style="edgeStyle=orthogonalEdgeStyle;rounded=0;orthogonalLoop=1;jettySize=auto;html=1;entryX=0.5;entryY=0;entryDx=0;entryDy=0;" parent="1" source="Wo3q0FR-ISAkBuYLNfdj-10" target="Wo3q0FR-ISAkBuYLNfdj-171" edge="1">
          <mxGeometry relative="1" as="geometry">
            <Array as="points">
              <mxPoint x="370" y="1050" />
              <mxPoint x="230" y="1050" />
            </Array>
          </mxGeometry>
        </mxCell>
        <mxCell id="ElhmosrxKKZjNARZ_xmM-15" style="edgeStyle=orthogonalEdgeStyle;rounded=0;orthogonalLoop=1;jettySize=auto;html=1;entryX=0.5;entryY=1;entryDx=0;entryDy=0;" parent="1" source="Wo3q0FR-ISAkBuYLNfdj-10" target="ElhmosrxKKZjNARZ_xmM-14" edge="1">
          <mxGeometry relative="1" as="geometry">
            <Array as="points">
              <mxPoint x="430" y="625" />
              <mxPoint x="500" y="625" />
            </Array>
          </mxGeometry>
        </mxCell>
        <mxCell id="Wo3q0FR-ISAkBuYLNfdj-10" value="Producto" style="rounded=1;whiteSpace=wrap;html=1;" parent="1" vertex="1">
          <mxGeometry x="345" y="670" width="120" height="60" as="geometry" />
        </mxCell>
        <mxCell id="Wo3q0FR-ISAkBuYLNfdj-127" style="edgeStyle=orthogonalEdgeStyle;rounded=0;orthogonalLoop=1;jettySize=auto;html=1;" parent="1" source="Wo3q0FR-ISAkBuYLNfdj-11" target="Wo3q0FR-ISAkBuYLNfdj-126" edge="1">
          <mxGeometry relative="1" as="geometry" />
        </mxCell>
        <mxCell id="Wo3q0FR-ISAkBuYLNfdj-11" value="Ventas" style="rounded=1;whiteSpace=wrap;html=1;" parent="1" vertex="1">
          <mxGeometry x="860" y="510" width="120" height="60" as="geometry" />
        </mxCell>
        <mxCell id="7sKFQ8EnV7iIlWdS504C-5" style="edgeStyle=orthogonalEdgeStyle;rounded=0;orthogonalLoop=1;jettySize=auto;html=1;entryX=0;entryY=0.5;entryDx=0;entryDy=0;" edge="1" parent="1" source="Wo3q0FR-ISAkBuYLNfdj-12" target="Wo3q0FR-ISAkBuYLNfdj-87">
          <mxGeometry relative="1" as="geometry" />
        </mxCell>
        <mxCell id="Wo3q0FR-ISAkBuYLNfdj-12" value="Valoracion" style="rounded=1;whiteSpace=wrap;html=1;" parent="1" vertex="1">
          <mxGeometry x="710" y="10" width="120" height="60" as="geometry" />
        </mxCell>
        <mxCell id="Wo3q0FR-ISAkBuYLNfdj-13" value="Detalle_Ventas" style="rounded=1;whiteSpace=wrap;html=1;" parent="1" vertex="1">
          <mxGeometry x="890" y="860" width="120" height="60" as="geometry" />
        </mxCell>
        <mxCell id="Wo3q0FR-ISAkBuYLNfdj-15" value="&lt;b&gt;&lt;u&gt;cargo_id&lt;/u&gt;&lt;/b&gt;" style="ellipse;whiteSpace=wrap;html=1;" parent="1" vertex="1">
          <mxGeometry x="-390" y="60" width="120" height="80" as="geometry" />
        </mxCell>
        <mxCell id="Wo3q0FR-ISAkBuYLNfdj-18" value="cargo" style="ellipse;whiteSpace=wrap;html=1;" parent="1" vertex="1">
          <mxGeometry x="-370" y="170" width="120" height="80" as="geometry" />
        </mxCell>
        <mxCell id="Wo3q0FR-ISAkBuYLNfdj-19" style="edgeStyle=orthogonalEdgeStyle;rounded=0;orthogonalLoop=1;jettySize=auto;html=1;exitX=0;exitY=1;exitDx=0;exitDy=0;entryX=0.887;entryY=0.203;entryDx=0;entryDy=0;entryPerimeter=0;" parent="1" source="Wo3q0FR-ISAkBuYLNfdj-4" target="Wo3q0FR-ISAkBuYLNfdj-18" edge="1">
          <mxGeometry relative="1" as="geometry" />
        </mxCell>
        <mxCell id="Wo3q0FR-ISAkBuYLNfdj-21" value="&lt;u style=&quot;&quot;&gt;&lt;b&gt;empleado_id&lt;/b&gt;&lt;/u&gt;" style="ellipse;whiteSpace=wrap;html=1;" parent="1" vertex="1">
          <mxGeometry x="-340" y="330" width="120" height="80" as="geometry" />
        </mxCell>
        <mxCell id="Wo3q0FR-ISAkBuYLNfdj-22" value="nombre" style="ellipse;whiteSpace=wrap;html=1;" parent="1" vertex="1">
          <mxGeometry x="-340" y="420" width="120" height="80" as="geometry" />
        </mxCell>
        <mxCell id="Wo3q0FR-ISAkBuYLNfdj-23" value="apellido" style="ellipse;whiteSpace=wrap;html=1;" parent="1" vertex="1">
          <mxGeometry x="-330" y="510" width="120" height="80" as="geometry" />
        </mxCell>
        <mxCell id="Wo3q0FR-ISAkBuYLNfdj-24" value="telefono" style="ellipse;whiteSpace=wrap;html=1;" parent="1" vertex="1">
          <mxGeometry x="-340" y="610" width="120" height="80" as="geometry" />
        </mxCell>
        <mxCell id="Wo3q0FR-ISAkBuYLNfdj-25" value="correo_electronico" style="ellipse;whiteSpace=wrap;html=1;" parent="1" vertex="1">
          <mxGeometry x="-290" y="690" width="120" height="80" as="geometry" />
        </mxCell>
        <mxCell id="Wo3q0FR-ISAkBuYLNfdj-26" value="direccion" style="ellipse;whiteSpace=wrap;html=1;" parent="1" vertex="1">
          <mxGeometry x="-170" y="730" width="120" height="80" as="geometry" />
        </mxCell>
        <mxCell id="Wo3q0FR-ISAkBuYLNfdj-27" value="salario" style="ellipse;whiteSpace=wrap;html=1;" parent="1" vertex="1">
          <mxGeometry x="-40" y="740" width="120" height="80" as="geometry" />
        </mxCell>
        <mxCell id="Wo3q0FR-ISAkBuYLNfdj-28" value="contrasena" style="ellipse;whiteSpace=wrap;html=1;" parent="1" vertex="1">
          <mxGeometry x="70" y="680" width="120" height="80" as="geometry" />
        </mxCell>
        <mxCell id="Wo3q0FR-ISAkBuYLNfdj-29" value="cargo_id" style="ellipse;whiteSpace=wrap;html=1;" parent="1" vertex="1">
          <mxGeometry x="70" y="580" width="120" height="80" as="geometry" />
        </mxCell>
        <mxCell id="Wo3q0FR-ISAkBuYLNfdj-40" value="" style="endArrow=classic;html=1;rounded=0;exitX=0.043;exitY=0.983;exitDx=0;exitDy=0;exitPerimeter=0;" parent="1" source="Wo3q0FR-ISAkBuYLNfdj-7" target="Wo3q0FR-ISAkBuYLNfdj-23" edge="1">
          <mxGeometry width="50" height="50" relative="1" as="geometry">
            <mxPoint x="-60" y="440" as="sourcePoint" />
            <mxPoint y="440" as="targetPoint" />
          </mxGeometry>
        </mxCell>
        <mxCell id="Wo3q0FR-ISAkBuYLNfdj-41" value="" style="endArrow=classic;html=1;rounded=0;exitX=0.25;exitY=1;exitDx=0;exitDy=0;entryX=0.843;entryY=0.113;entryDx=0;entryDy=0;entryPerimeter=0;" parent="1" source="Wo3q0FR-ISAkBuYLNfdj-7" target="Wo3q0FR-ISAkBuYLNfdj-24" edge="1">
          <mxGeometry width="50" height="50" relative="1" as="geometry">
            <mxPoint x="-60" y="510" as="sourcePoint" />
            <mxPoint x="-10" y="460" as="targetPoint" />
          </mxGeometry>
        </mxCell>
        <mxCell id="Wo3q0FR-ISAkBuYLNfdj-42" value="" style="endArrow=classic;html=1;rounded=0;entryX=0.5;entryY=0;entryDx=0;entryDy=0;" parent="1" target="Wo3q0FR-ISAkBuYLNfdj-26" edge="1">
          <mxGeometry width="50" height="50" relative="1" as="geometry">
            <mxPoint x="-30" y="440" as="sourcePoint" />
            <mxPoint x="20" y="460" as="targetPoint" />
          </mxGeometry>
        </mxCell>
        <mxCell id="Wo3q0FR-ISAkBuYLNfdj-43" value="" style="endArrow=classic;html=1;rounded=0;exitX=0.381;exitY=1.01;exitDx=0;exitDy=0;entryX=0.5;entryY=0;entryDx=0;entryDy=0;exitPerimeter=0;" parent="1" source="Wo3q0FR-ISAkBuYLNfdj-7" target="Wo3q0FR-ISAkBuYLNfdj-27" edge="1">
          <mxGeometry width="50" height="50" relative="1" as="geometry">
            <mxPoint x="30" y="510" as="sourcePoint" />
            <mxPoint x="80" y="460" as="targetPoint" />
          </mxGeometry>
        </mxCell>
        <mxCell id="Wo3q0FR-ISAkBuYLNfdj-44" value="" style="endArrow=classic;html=1;rounded=0;exitX=0.443;exitY=1.038;exitDx=0;exitDy=0;entryX=0;entryY=0.375;entryDx=0;entryDy=0;entryPerimeter=0;exitPerimeter=0;" parent="1" source="Wo3q0FR-ISAkBuYLNfdj-7" target="Wo3q0FR-ISAkBuYLNfdj-28" edge="1">
          <mxGeometry width="50" height="50" relative="1" as="geometry">
            <mxPoint x="70" y="490" as="sourcePoint" />
            <mxPoint x="120" y="440" as="targetPoint" />
          </mxGeometry>
        </mxCell>
        <mxCell id="Wo3q0FR-ISAkBuYLNfdj-45" value="" style="endArrow=classic;html=1;rounded=0;exitX=0.5;exitY=1;exitDx=0;exitDy=0;entryX=0;entryY=0.375;entryDx=0;entryDy=0;entryPerimeter=0;" parent="1" source="Wo3q0FR-ISAkBuYLNfdj-7" target="Wo3q0FR-ISAkBuYLNfdj-29" edge="1">
          <mxGeometry width="50" height="50" relative="1" as="geometry">
            <mxPoint x="30" y="480" as="sourcePoint" />
            <mxPoint x="80" y="430" as="targetPoint" />
          </mxGeometry>
        </mxCell>
        <mxCell id="Wo3q0FR-ISAkBuYLNfdj-46" value="" style="endArrow=classic;html=1;rounded=0;exitX=-0.005;exitY=0.829;exitDx=0;exitDy=0;exitPerimeter=0;" parent="1" source="Wo3q0FR-ISAkBuYLNfdj-7" target="Wo3q0FR-ISAkBuYLNfdj-22" edge="1">
          <mxGeometry width="50" height="50" relative="1" as="geometry">
            <mxPoint x="-80" y="410" as="sourcePoint" />
            <mxPoint x="-30" y="360" as="targetPoint" />
          </mxGeometry>
        </mxCell>
        <mxCell id="Wo3q0FR-ISAkBuYLNfdj-49" value="Tiene" style="rhombus;whiteSpace=wrap;html=1;" parent="1" vertex="1">
          <mxGeometry x="-45" y="240" width="90" height="80" as="geometry" />
        </mxCell>
        <mxCell id="Wo3q0FR-ISAkBuYLNfdj-50" style="edgeStyle=orthogonalEdgeStyle;rounded=0;orthogonalLoop=1;jettySize=auto;html=1;entryX=0.507;entryY=0.057;entryDx=0;entryDy=0;entryPerimeter=0;" parent="1" source="Wo3q0FR-ISAkBuYLNfdj-4" target="Wo3q0FR-ISAkBuYLNfdj-49" edge="1">
          <mxGeometry relative="1" as="geometry" />
        </mxCell>
        <mxCell id="Wo3q0FR-ISAkBuYLNfdj-53" style="edgeStyle=orthogonalEdgeStyle;rounded=0;orthogonalLoop=1;jettySize=auto;html=1;exitX=0.5;exitY=1;exitDx=0;exitDy=0;" parent="1" source="Wo3q0FR-ISAkBuYLNfdj-51" target="Wo3q0FR-ISAkBuYLNfdj-10" edge="1">
          <mxGeometry relative="1" as="geometry">
            <Array as="points">
              <mxPoint x="405" y="540" />
              <mxPoint x="405" y="540" />
            </Array>
          </mxGeometry>
        </mxCell>
        <mxCell id="Wo3q0FR-ISAkBuYLNfdj-51" value="Vende" style="rhombus;whiteSpace=wrap;html=1;" parent="1" vertex="1">
          <mxGeometry x="360" y="430" width="90" height="80" as="geometry" />
        </mxCell>
        <mxCell id="Wo3q0FR-ISAkBuYLNfdj-56" value="&lt;u&gt;&lt;b&gt;producto_id&lt;/b&gt;&lt;/u&gt;" style="ellipse;whiteSpace=wrap;html=1;" parent="1" vertex="1">
          <mxGeometry x="-190" y="880" width="120" height="80" as="geometry" />
        </mxCell>
        <mxCell id="ElhmosrxKKZjNARZ_xmM-9" style="edgeStyle=orthogonalEdgeStyle;rounded=0;orthogonalLoop=1;jettySize=auto;html=1;entryX=0.75;entryY=1;entryDx=0;entryDy=0;" parent="1" source="Wo3q0FR-ISAkBuYLNfdj-58" target="Wo3q0FR-ISAkBuYLNfdj-10" edge="1">
          <mxGeometry relative="1" as="geometry">
            <Array as="points">
              <mxPoint x="420" y="730" />
            </Array>
          </mxGeometry>
        </mxCell>
        <mxCell id="Wo3q0FR-ISAkBuYLNfdj-58" value="precio" style="ellipse;whiteSpace=wrap;html=1;" parent="1" vertex="1">
          <mxGeometry x="380" y="1160" width="120" height="80" as="geometry" />
        </mxCell>
        <mxCell id="Wo3q0FR-ISAkBuYLNfdj-59" value="nombre" style="ellipse;whiteSpace=wrap;html=1;" parent="1" vertex="1">
          <mxGeometry x="-45" y="1030" width="120" height="80" as="geometry" />
        </mxCell>
        <mxCell id="Wo3q0FR-ISAkBuYLNfdj-60" value="descripcion" style="ellipse;whiteSpace=wrap;html=1;" parent="1" vertex="1">
          <mxGeometry x="40" y="1090" width="120" height="80" as="geometry" />
        </mxCell>
        <mxCell id="Wo3q0FR-ISAkBuYLNfdj-61" value="marca_id" style="ellipse;whiteSpace=wrap;html=1;" parent="1" vertex="1">
          <mxGeometry x="570" y="840" width="120" height="80" as="geometry" />
        </mxCell>
        <mxCell id="ElhmosrxKKZjNARZ_xmM-11" style="edgeStyle=orthogonalEdgeStyle;rounded=0;orthogonalLoop=1;jettySize=auto;html=1;" parent="1" source="Wo3q0FR-ISAkBuYLNfdj-62" target="Wo3q0FR-ISAkBuYLNfdj-10" edge="1">
          <mxGeometry relative="1" as="geometry">
            <Array as="points">
              <mxPoint x="440" y="1100" />
            </Array>
          </mxGeometry>
        </mxCell>
        <mxCell id="Wo3q0FR-ISAkBuYLNfdj-62" value="foto" style="ellipse;whiteSpace=wrap;html=1;" parent="1" vertex="1">
          <mxGeometry x="500" y="1060" width="120" height="80" as="geometry" />
        </mxCell>
        <mxCell id="Wo3q0FR-ISAkBuYLNfdj-63" value="proveedor_id" style="ellipse;whiteSpace=wrap;html=1;" parent="1" vertex="1">
          <mxGeometry x="530" y="950" width="120" height="80" as="geometry" />
        </mxCell>
        <mxCell id="Wo3q0FR-ISAkBuYLNfdj-64" value="existencias" style="ellipse;whiteSpace=wrap;html=1;" parent="1" vertex="1">
          <mxGeometry x="600" y="730" width="120" height="80" as="geometry" />
        </mxCell>
        <mxCell id="Wo3q0FR-ISAkBuYLNfdj-70" value="" style="endArrow=classic;html=1;rounded=0;" parent="1" target="Wo3q0FR-ISAkBuYLNfdj-63" edge="1">
          <mxGeometry width="50" height="50" relative="1" as="geometry">
            <mxPoint x="440" y="730" as="sourcePoint" />
            <mxPoint x="490" y="680" as="targetPoint" />
          </mxGeometry>
        </mxCell>
        <mxCell id="Wo3q0FR-ISAkBuYLNfdj-71" value="" style="endArrow=classic;html=1;rounded=0;" parent="1" target="Wo3q0FR-ISAkBuYLNfdj-61" edge="1">
          <mxGeometry width="50" height="50" relative="1" as="geometry">
            <mxPoint x="440" y="730" as="sourcePoint" />
            <mxPoint x="490" y="680" as="targetPoint" />
          </mxGeometry>
        </mxCell>
        <mxCell id="Wo3q0FR-ISAkBuYLNfdj-72" value="" style="endArrow=classic;html=1;rounded=0;entryX=-0.023;entryY=0.411;entryDx=0;entryDy=0;entryPerimeter=0;" parent="1" target="Wo3q0FR-ISAkBuYLNfdj-64" edge="1">
          <mxGeometry width="50" height="50" relative="1" as="geometry">
            <mxPoint x="460" y="730" as="sourcePoint" />
            <mxPoint x="510" y="680" as="targetPoint" />
          </mxGeometry>
        </mxCell>
        <mxCell id="Wo3q0FR-ISAkBuYLNfdj-73" value="&lt;b&gt;&lt;u&gt;venta_id&lt;/u&gt;&lt;/b&gt;" style="ellipse;whiteSpace=wrap;html=1;" parent="1" vertex="1">
          <mxGeometry x="770" y="580" width="100" height="60" as="geometry" />
        </mxCell>
        <mxCell id="Wo3q0FR-ISAkBuYLNfdj-74" value="fecha" style="ellipse;whiteSpace=wrap;html=1;" parent="1" vertex="1">
          <mxGeometry x="810" y="670" width="100" height="60" as="geometry" />
        </mxCell>
        <mxCell id="Wo3q0FR-ISAkBuYLNfdj-75" value="total" style="ellipse;whiteSpace=wrap;html=1;" parent="1" vertex="1">
          <mxGeometry x="980" y="660" width="90" height="60" as="geometry" />
        </mxCell>
        <mxCell id="Wo3q0FR-ISAkBuYLNfdj-76" value="cliente_id" style="ellipse;whiteSpace=wrap;html=1;" parent="1" vertex="1">
          <mxGeometry x="1000" y="560" width="110" height="60" as="geometry" />
        </mxCell>
        <mxCell id="Wo3q0FR-ISAkBuYLNfdj-77" value="" style="endArrow=classic;html=1;rounded=0;exitX=0.5;exitY=1;exitDx=0;exitDy=0;entryX=0.999;entryY=0.287;entryDx=0;entryDy=0;entryPerimeter=0;" parent="1" source="Wo3q0FR-ISAkBuYLNfdj-11" target="Wo3q0FR-ISAkBuYLNfdj-73" edge="1">
          <mxGeometry width="50" height="50" relative="1" as="geometry">
            <mxPoint x="1010" y="590" as="sourcePoint" />
            <mxPoint x="1060" y="540" as="targetPoint" />
          </mxGeometry>
        </mxCell>
        <mxCell id="Wo3q0FR-ISAkBuYLNfdj-78" value="" style="endArrow=classic;html=1;rounded=0;entryX=0.864;entryY=0.075;entryDx=0;entryDy=0;entryPerimeter=0;" parent="1" target="Wo3q0FR-ISAkBuYLNfdj-74" edge="1">
          <mxGeometry width="50" height="50" relative="1" as="geometry">
            <mxPoint x="920" y="570" as="sourcePoint" />
            <mxPoint x="970" y="520" as="targetPoint" />
          </mxGeometry>
        </mxCell>
        <mxCell id="Wo3q0FR-ISAkBuYLNfdj-80" value="" style="endArrow=classic;html=1;rounded=0;exitX=0.75;exitY=1;exitDx=0;exitDy=0;entryX=0.006;entryY=0.374;entryDx=0;entryDy=0;entryPerimeter=0;" parent="1" source="Wo3q0FR-ISAkBuYLNfdj-11" target="Wo3q0FR-ISAkBuYLNfdj-76" edge="1">
          <mxGeometry width="50" height="50" relative="1" as="geometry">
            <mxPoint x="1010" y="590" as="sourcePoint" />
            <mxPoint x="1060" y="540" as="targetPoint" />
          </mxGeometry>
        </mxCell>
        <mxCell id="Wo3q0FR-ISAkBuYLNfdj-81" value="" style="endArrow=classic;html=1;rounded=0;" parent="1" target="Wo3q0FR-ISAkBuYLNfdj-75" edge="1">
          <mxGeometry width="50" height="50" relative="1" as="geometry">
            <mxPoint x="950" y="570" as="sourcePoint" />
            <mxPoint x="1000" y="520" as="targetPoint" />
          </mxGeometry>
        </mxCell>
        <mxCell id="Wo3q0FR-ISAkBuYLNfdj-83" value="&lt;b&gt;&lt;u&gt;valoracion_id&lt;/u&gt;&lt;/b&gt;" style="ellipse;whiteSpace=wrap;html=1;" parent="1" vertex="1">
          <mxGeometry x="540" y="-80" width="120" height="80" as="geometry" />
        </mxCell>
        <mxCell id="Wo3q0FR-ISAkBuYLNfdj-86" value="calificacion" style="ellipse;whiteSpace=wrap;html=1;" parent="1" vertex="1">
          <mxGeometry x="860" y="-160" width="120" height="80" as="geometry" />
        </mxCell>
        <mxCell id="Wo3q0FR-ISAkBuYLNfdj-87" value="comentario" style="ellipse;whiteSpace=wrap;html=1;" parent="1" vertex="1">
          <mxGeometry x="910" y="-70" width="120" height="80" as="geometry" />
        </mxCell>
        <mxCell id="Wo3q0FR-ISAkBuYLNfdj-88" value="fecha_valoracion" style="ellipse;whiteSpace=wrap;html=1;" parent="1" vertex="1">
          <mxGeometry x="740" y="-220" width="120" height="80" as="geometry" />
        </mxCell>
        <mxCell id="Wo3q0FR-ISAkBuYLNfdj-96" value="&lt;b&gt;&lt;u&gt;detalle_venta_id&lt;/u&gt;&lt;/b&gt;" style="ellipse;whiteSpace=wrap;html=1;" parent="1" vertex="1">
          <mxGeometry x="710" y="940" width="120" height="80" as="geometry" />
        </mxCell>
        <mxCell id="Wo3q0FR-ISAkBuYLNfdj-97" value="venta_id" style="ellipse;whiteSpace=wrap;html=1;" parent="1" vertex="1">
          <mxGeometry x="870" y="1060" width="120" height="80" as="geometry" />
        </mxCell>
        <mxCell id="Wo3q0FR-ISAkBuYLNfdj-98" value="producto_id" style="ellipse;whiteSpace=wrap;html=1;" parent="1" vertex="1">
          <mxGeometry x="1190" y="990" width="120" height="80" as="geometry" />
        </mxCell>
        <mxCell id="Wo3q0FR-ISAkBuYLNfdj-99" value="precio_unitario" style="ellipse;whiteSpace=wrap;html=1;" parent="1" vertex="1">
          <mxGeometry x="1090" y="1050" width="120" height="80" as="geometry" />
        </mxCell>
        <mxCell id="Wo3q0FR-ISAkBuYLNfdj-100" value="cantidad" style="ellipse;whiteSpace=wrap;html=1;" parent="1" vertex="1">
          <mxGeometry x="980" y="1060" width="120" height="80" as="geometry" />
        </mxCell>
        <mxCell id="Wo3q0FR-ISAkBuYLNfdj-101" value="" style="endArrow=classic;html=1;rounded=0;entryX=0.959;entryY=0.211;entryDx=0;entryDy=0;entryPerimeter=0;exitX=0;exitY=1;exitDx=0;exitDy=0;" parent="1" target="Wo3q0FR-ISAkBuYLNfdj-96" edge="1" source="Wo3q0FR-ISAkBuYLNfdj-13">
          <mxGeometry width="50" height="50" relative="1" as="geometry">
            <mxPoint x="930" y="930" as="sourcePoint" />
            <mxPoint x="980" y="880" as="targetPoint" />
          </mxGeometry>
        </mxCell>
        <mxCell id="Wo3q0FR-ISAkBuYLNfdj-102" value="" style="endArrow=classic;html=1;rounded=0;" parent="1" target="Wo3q0FR-ISAkBuYLNfdj-97" edge="1">
          <mxGeometry width="50" height="50" relative="1" as="geometry">
            <mxPoint x="940" y="930" as="sourcePoint" />
            <mxPoint x="990" y="880" as="targetPoint" />
          </mxGeometry>
        </mxCell>
        <mxCell id="Wo3q0FR-ISAkBuYLNfdj-103" value="" style="endArrow=classic;html=1;rounded=0;entryX=0.5;entryY=0;entryDx=0;entryDy=0;" parent="1" target="Wo3q0FR-ISAkBuYLNfdj-100" edge="1">
          <mxGeometry width="50" height="50" relative="1" as="geometry">
            <mxPoint x="950" y="930" as="sourcePoint" />
            <mxPoint x="1000" y="880" as="targetPoint" />
            <Array as="points">
              <mxPoint x="1000" y="1000" />
            </Array>
          </mxGeometry>
        </mxCell>
        <mxCell id="Wo3q0FR-ISAkBuYLNfdj-104" value="" style="endArrow=classic;html=1;rounded=0;entryX=0.285;entryY=0.015;entryDx=0;entryDy=0;entryPerimeter=0;" parent="1" target="Wo3q0FR-ISAkBuYLNfdj-99" edge="1">
          <mxGeometry width="50" height="50" relative="1" as="geometry">
            <mxPoint x="950" y="930" as="sourcePoint" />
            <mxPoint x="1000" y="880" as="targetPoint" />
          </mxGeometry>
        </mxCell>
        <mxCell id="Wo3q0FR-ISAkBuYLNfdj-105" value="" style="endArrow=classic;html=1;rounded=0;" parent="1" target="Wo3q0FR-ISAkBuYLNfdj-98" edge="1">
          <mxGeometry width="50" height="50" relative="1" as="geometry">
            <mxPoint x="990" y="930" as="sourcePoint" />
            <mxPoint x="1040" y="880" as="targetPoint" />
          </mxGeometry>
        </mxCell>
        <mxCell id="Wo3q0FR-ISAkBuYLNfdj-106" value="&lt;b&gt;&lt;u&gt;cliente_id&lt;/u&gt;&lt;/b&gt;" style="ellipse;whiteSpace=wrap;html=1;" parent="1" vertex="1">
          <mxGeometry x="1150" y="70" width="120" height="80" as="geometry" />
        </mxCell>
        <mxCell id="Wo3q0FR-ISAkBuYLNfdj-107" value="nombre" style="ellipse;whiteSpace=wrap;html=1;" parent="1" vertex="1">
          <mxGeometry x="1120" y="210" width="120" height="80" as="geometry" />
        </mxCell>
        <mxCell id="Wo3q0FR-ISAkBuYLNfdj-109" value="contrasena" style="ellipse;whiteSpace=wrap;html=1;" parent="1" vertex="1">
          <mxGeometry x="1510" y="80" width="120" height="80" as="geometry" />
        </mxCell>
        <mxCell id="Wo3q0FR-ISAkBuYLNfdj-110" value="correo_electronico" style="ellipse;whiteSpace=wrap;html=1;" parent="1" vertex="1">
          <mxGeometry x="1400" y="270" width="120" height="80" as="geometry" />
        </mxCell>
        <mxCell id="Wo3q0FR-ISAkBuYLNfdj-111" value="direccion" style="ellipse;whiteSpace=wrap;html=1;" parent="1" vertex="1">
          <mxGeometry x="1540" y="260" width="120" height="80" as="geometry" />
        </mxCell>
        <mxCell id="Wo3q0FR-ISAkBuYLNfdj-112" value="apellido" style="ellipse;whiteSpace=wrap;html=1;" parent="1" vertex="1">
          <mxGeometry x="1180" y="320" width="120" height="80" as="geometry" />
        </mxCell>
        <mxCell id="Wo3q0FR-ISAkBuYLNfdj-113" value="telefono" style="ellipse;whiteSpace=wrap;html=1;" parent="1" vertex="1">
          <mxGeometry x="1300" y="370" width="120" height="80" as="geometry" />
        </mxCell>
        <mxCell id="Wo3q0FR-ISAkBuYLNfdj-114" value="" style="endArrow=classic;html=1;rounded=0;" parent="1" target="Wo3q0FR-ISAkBuYLNfdj-106" edge="1">
          <mxGeometry width="50" height="50" relative="1" as="geometry">
            <mxPoint x="1330" y="90" as="sourcePoint" />
            <mxPoint x="1380" y="40" as="targetPoint" />
          </mxGeometry>
        </mxCell>
        <mxCell id="Wo3q0FR-ISAkBuYLNfdj-115" value="" style="endArrow=classic;html=1;rounded=0;entryX=1;entryY=0;entryDx=0;entryDy=0;" parent="1" target="Wo3q0FR-ISAkBuYLNfdj-107" edge="1">
          <mxGeometry width="50" height="50" relative="1" as="geometry">
            <mxPoint x="1340" y="120" as="sourcePoint" />
            <mxPoint x="1390" y="70" as="targetPoint" />
          </mxGeometry>
        </mxCell>
        <mxCell id="Wo3q0FR-ISAkBuYLNfdj-116" value="" style="endArrow=classic;html=1;rounded=0;" parent="1" target="Wo3q0FR-ISAkBuYLNfdj-112" edge="1">
          <mxGeometry width="50" height="50" relative="1" as="geometry">
            <mxPoint x="1360" y="120" as="sourcePoint" />
            <mxPoint x="1410" y="70" as="targetPoint" />
          </mxGeometry>
        </mxCell>
        <mxCell id="Wo3q0FR-ISAkBuYLNfdj-117" value="" style="endArrow=classic;html=1;rounded=0;entryX=0.414;entryY=-0.051;entryDx=0;entryDy=0;entryPerimeter=0;" parent="1" target="Wo3q0FR-ISAkBuYLNfdj-113" edge="1">
          <mxGeometry width="50" height="50" relative="1" as="geometry">
            <mxPoint x="1390" y="120" as="sourcePoint" />
            <mxPoint x="1440" y="70" as="targetPoint" />
          </mxGeometry>
        </mxCell>
        <mxCell id="Wo3q0FR-ISAkBuYLNfdj-118" value="" style="endArrow=classic;html=1;rounded=0;entryX=0.333;entryY=0;entryDx=0;entryDy=0;entryPerimeter=0;" parent="1" target="Wo3q0FR-ISAkBuYLNfdj-110" edge="1">
          <mxGeometry width="50" height="50" relative="1" as="geometry">
            <mxPoint x="1420" y="120" as="sourcePoint" />
            <mxPoint x="1470" y="70" as="targetPoint" />
          </mxGeometry>
        </mxCell>
        <mxCell id="Wo3q0FR-ISAkBuYLNfdj-120" value="" style="endArrow=classic;html=1;rounded=0;entryX=0.042;entryY=0.287;entryDx=0;entryDy=0;entryPerimeter=0;exitX=1;exitY=0.5;exitDx=0;exitDy=0;" parent="1" source="Wo3q0FR-ISAkBuYLNfdj-9" target="Wo3q0FR-ISAkBuYLNfdj-109" edge="1">
          <mxGeometry width="50" height="50" relative="1" as="geometry">
            <mxPoint x="1450" y="70" as="sourcePoint" />
            <mxPoint x="1500" y="20" as="targetPoint" />
          </mxGeometry>
        </mxCell>
        <mxCell id="Wo3q0FR-ISAkBuYLNfdj-121" value="" style="endArrow=classic;html=1;rounded=0;" parent="1" target="Wo3q0FR-ISAkBuYLNfdj-111" edge="1">
          <mxGeometry width="50" height="50" relative="1" as="geometry">
            <mxPoint x="1440" y="120" as="sourcePoint" />
            <mxPoint x="1490" y="70" as="targetPoint" />
          </mxGeometry>
        </mxCell>
        <mxCell id="Wo3q0FR-ISAkBuYLNfdj-123" value="Posee" style="rhombus;whiteSpace=wrap;html=1;" parent="1" vertex="1">
          <mxGeometry x="620" y="600" width="80" height="80" as="geometry" />
        </mxCell>
        <mxCell id="Wo3q0FR-ISAkBuYLNfdj-128" style="edgeStyle=orthogonalEdgeStyle;rounded=0;orthogonalLoop=1;jettySize=auto;html=1;exitX=1;exitY=0.5;exitDx=0;exitDy=0;" parent="1" source="Wo3q0FR-ISAkBuYLNfdj-126" target="Wo3q0FR-ISAkBuYLNfdj-13" edge="1">
          <mxGeometry relative="1" as="geometry">
            <Array as="points">
              <mxPoint x="1270" y="510" />
              <mxPoint x="1270" y="750" />
              <mxPoint x="950" y="750" />
            </Array>
          </mxGeometry>
        </mxCell>
        <mxCell id="Wo3q0FR-ISAkBuYLNfdj-126" value="Contiene" style="rhombus;whiteSpace=wrap;html=1;" parent="1" vertex="1">
          <mxGeometry x="1170" y="470" width="80" height="80" as="geometry" />
        </mxCell>
        <mxCell id="Wo3q0FR-ISAkBuYLNfdj-134" value="" style="endArrow=classic;html=1;rounded=0;entryX=0.346;entryY=1.038;entryDx=0;entryDy=0;entryPerimeter=0;" parent="1" target="Wo3q0FR-ISAkBuYLNfdj-88" edge="1">
          <mxGeometry width="50" height="50" relative="1" as="geometry">
            <mxPoint x="760" y="10" as="sourcePoint" />
            <mxPoint x="810" y="-40" as="targetPoint" />
          </mxGeometry>
        </mxCell>
        <mxCell id="Wo3q0FR-ISAkBuYLNfdj-135" value="" style="endArrow=classic;html=1;rounded=0;entryX=0.329;entryY=1.024;entryDx=0;entryDy=0;entryPerimeter=0;" parent="1" target="Wo3q0FR-ISAkBuYLNfdj-86" edge="1">
          <mxGeometry width="50" height="50" relative="1" as="geometry">
            <mxPoint x="770" y="10" as="sourcePoint" />
            <mxPoint x="820" y="-40" as="targetPoint" />
          </mxGeometry>
        </mxCell>
        <mxCell id="Wo3q0FR-ISAkBuYLNfdj-136" value="" style="endArrow=classic;html=1;rounded=0;entryX=0.657;entryY=1.011;entryDx=0;entryDy=0;entryPerimeter=0;" parent="1" target="Wo3q0FR-ISAkBuYLNfdj-83" edge="1">
          <mxGeometry width="50" height="50" relative="1" as="geometry">
            <mxPoint x="760" y="10" as="sourcePoint" />
            <mxPoint x="810" y="-40" as="targetPoint" />
          </mxGeometry>
        </mxCell>
        <mxCell id="Wo3q0FR-ISAkBuYLNfdj-140" value="marca_id" style="ellipse;whiteSpace=wrap;html=1;" parent="1" vertex="1">
          <mxGeometry x="160" y="-260" width="120" height="80" as="geometry" />
        </mxCell>
        <mxCell id="Wo3q0FR-ISAkBuYLNfdj-141" value="nombre" style="ellipse;whiteSpace=wrap;html=1;" parent="1" vertex="1">
          <mxGeometry x="340" y="-280" width="120" height="80" as="geometry" />
        </mxCell>
        <mxCell id="Wo3q0FR-ISAkBuYLNfdj-142" value="foto" style="ellipse;whiteSpace=wrap;html=1;" parent="1" vertex="1">
          <mxGeometry x="490" y="-300" width="120" height="80" as="geometry" />
        </mxCell>
        <mxCell id="Wo3q0FR-ISAkBuYLNfdj-148" value="&lt;b&gt;&lt;u&gt;categoria_id&lt;/u&gt;&lt;/b&gt;" style="ellipse;whiteSpace=wrap;html=1;" parent="1" vertex="1">
          <mxGeometry x="160" y="190" width="120" height="80" as="geometry" />
        </mxCell>
        <mxCell id="Wo3q0FR-ISAkBuYLNfdj-149" value="nombre" style="ellipse;whiteSpace=wrap;html=1;" parent="1" vertex="1">
          <mxGeometry x="90" y="100" width="120" height="80" as="geometry" />
        </mxCell>
        <mxCell id="Wo3q0FR-ISAkBuYLNfdj-150" value="foto" style="ellipse;whiteSpace=wrap;html=1;" parent="1" vertex="1">
          <mxGeometry x="310" y="180" width="120" height="80" as="geometry" />
        </mxCell>
        <mxCell id="Wo3q0FR-ISAkBuYLNfdj-151" value="" style="endArrow=classic;html=1;rounded=0;entryX=0.589;entryY=-0.045;entryDx=0;entryDy=0;entryPerimeter=0;" parent="1" target="Wo3q0FR-ISAkBuYLNfdj-148" edge="1">
          <mxGeometry width="50" height="50" relative="1" as="geometry">
            <mxPoint x="320" y="90" as="sourcePoint" />
            <mxPoint x="370" y="40" as="targetPoint" />
          </mxGeometry>
        </mxCell>
        <mxCell id="Wo3q0FR-ISAkBuYLNfdj-152" value="" style="endArrow=classic;html=1;rounded=0;entryX=0.419;entryY=-0.028;entryDx=0;entryDy=0;entryPerimeter=0;exitX=0;exitY=0.5;exitDx=0;exitDy=0;" parent="1" source="Wo3q0FR-ISAkBuYLNfdj-8" target="Wo3q0FR-ISAkBuYLNfdj-149" edge="1">
          <mxGeometry width="50" height="50" relative="1" as="geometry">
            <mxPoint x="100" y="-10" as="sourcePoint" />
            <mxPoint x="150" y="-60" as="targetPoint" />
          </mxGeometry>
        </mxCell>
        <mxCell id="Wo3q0FR-ISAkBuYLNfdj-153" value="" style="endArrow=classic;html=1;rounded=0;entryX=0.046;entryY=0.2;entryDx=0;entryDy=0;entryPerimeter=0;" parent="1" target="Wo3q0FR-ISAkBuYLNfdj-150" edge="1">
          <mxGeometry width="50" height="50" relative="1" as="geometry">
            <mxPoint x="320" y="90" as="sourcePoint" />
            <mxPoint x="370" y="40" as="targetPoint" />
          </mxGeometry>
        </mxCell>
        <mxCell id="Wo3q0FR-ISAkBuYLNfdj-158" value="categoria_id" style="ellipse;whiteSpace=wrap;html=1;" parent="1" vertex="1">
          <mxGeometry x="-150" y="970" width="120" height="80" as="geometry" />
        </mxCell>
        <mxCell id="Wo3q0FR-ISAkBuYLNfdj-163" value="&lt;b&gt;&lt;u&gt;proveedor_id&lt;/u&gt;&lt;/b&gt;" style="ellipse;whiteSpace=wrap;html=1;" parent="1" vertex="1">
          <mxGeometry x="80" y="1440" width="120" height="80" as="geometry" />
        </mxCell>
        <mxCell id="Wo3q0FR-ISAkBuYLNfdj-164" value="nombre" style="ellipse;whiteSpace=wrap;html=1;" parent="1" vertex="1">
          <mxGeometry x="180" y="1540" width="120" height="80" as="geometry" />
        </mxCell>
        <mxCell id="Wo3q0FR-ISAkBuYLNfdj-165" value="telefono" style="ellipse;whiteSpace=wrap;html=1;" parent="1" vertex="1">
          <mxGeometry x="310" y="1600" width="120" height="80" as="geometry" />
        </mxCell>
        <mxCell id="Wo3q0FR-ISAkBuYLNfdj-166" value="direccion" style="ellipse;whiteSpace=wrap;html=1;" parent="1" vertex="1">
          <mxGeometry x="410" y="1520" width="120" height="80" as="geometry" />
        </mxCell>
        <mxCell id="Wo3q0FR-ISAkBuYLNfdj-167" value="" style="endArrow=classic;html=1;rounded=0;entryX=0.917;entryY=0.14;entryDx=0;entryDy=0;entryPerimeter=0;" parent="1" target="Wo3q0FR-ISAkBuYLNfdj-163" edge="1">
          <mxGeometry width="50" height="50" relative="1" as="geometry">
            <mxPoint x="270" y="1410" as="sourcePoint" />
            <mxPoint x="320" y="1360" as="targetPoint" />
          </mxGeometry>
        </mxCell>
        <mxCell id="Wo3q0FR-ISAkBuYLNfdj-168" value="" style="endArrow=classic;html=1;rounded=0;entryX=0.633;entryY=-0.011;entryDx=0;entryDy=0;entryPerimeter=0;" parent="1" target="Wo3q0FR-ISAkBuYLNfdj-164" edge="1">
          <mxGeometry width="50" height="50" relative="1" as="geometry">
            <mxPoint x="290" y="1410" as="sourcePoint" />
            <mxPoint x="340" y="1360" as="targetPoint" />
          </mxGeometry>
        </mxCell>
        <mxCell id="Wo3q0FR-ISAkBuYLNfdj-169" value="" style="endArrow=classic;html=1;rounded=0;entryX=0.308;entryY=0.041;entryDx=0;entryDy=0;entryPerimeter=0;" parent="1" target="Wo3q0FR-ISAkBuYLNfdj-165" edge="1">
          <mxGeometry width="50" height="50" relative="1" as="geometry">
            <mxPoint x="330" y="1410" as="sourcePoint" />
            <mxPoint x="380" y="1360" as="targetPoint" />
          </mxGeometry>
        </mxCell>
        <mxCell id="Wo3q0FR-ISAkBuYLNfdj-170" value="" style="endArrow=classic;html=1;rounded=0;" parent="1" target="Wo3q0FR-ISAkBuYLNfdj-166" edge="1">
          <mxGeometry width="50" height="50" relative="1" as="geometry">
            <mxPoint x="370" y="1410" as="sourcePoint" />
            <mxPoint x="420" y="1360" as="targetPoint" />
          </mxGeometry>
        </mxCell>
        <mxCell id="Wo3q0FR-ISAkBuYLNfdj-171" value="proveedor_id" style="ellipse;whiteSpace=wrap;html=1;" parent="1" vertex="1">
          <mxGeometry x="170" y="1130" width="120" height="80" as="geometry" />
        </mxCell>
        <mxCell id="ElhmosrxKKZjNARZ_xmM-8" style="edgeStyle=orthogonalEdgeStyle;rounded=0;orthogonalLoop=1;jettySize=auto;html=1;" parent="1" source="Wo3q0FR-ISAkBuYLNfdj-173" target="Wo3q0FR-ISAkBuYLNfdj-10" edge="1">
          <mxGeometry relative="1" as="geometry">
            <Array as="points">
              <mxPoint x="320" y="1080" />
              <mxPoint x="405" y="1080" />
            </Array>
          </mxGeometry>
        </mxCell>
        <mxCell id="Wo3q0FR-ISAkBuYLNfdj-173" value="tiene" style="rhombus;whiteSpace=wrap;html=1;" parent="1" vertex="1">
          <mxGeometry x="280" y="1190" width="80" height="80" as="geometry" />
        </mxCell>
        <mxCell id="Wo3q0FR-ISAkBuYLNfdj-176" value="" style="endArrow=classic;html=1;rounded=0;entryX=0.5;entryY=1;entryDx=0;entryDy=0;" parent="1" target="Wo3q0FR-ISAkBuYLNfdj-173" edge="1">
          <mxGeometry width="50" height="50" relative="1" as="geometry">
            <mxPoint x="320" y="1350" as="sourcePoint" />
            <mxPoint x="370" y="1300" as="targetPoint" />
          </mxGeometry>
        </mxCell>
        <mxCell id="Wo3q0FR-ISAkBuYLNfdj-179" value="1:1" style="text;html=1;strokeColor=none;fillColor=none;align=center;verticalAlign=middle;whiteSpace=wrap;rounded=0;" parent="1" vertex="1">
          <mxGeometry x="-50" y="170" width="60" height="30" as="geometry" />
        </mxCell>
        <mxCell id="Wo3q0FR-ISAkBuYLNfdj-180" value="1:N" style="text;html=1;strokeColor=none;fillColor=none;align=center;verticalAlign=middle;whiteSpace=wrap;rounded=0;" parent="1" vertex="1">
          <mxGeometry x="220" y="370" width="60" height="30" as="geometry" />
        </mxCell>
        <mxCell id="Wo3q0FR-ISAkBuYLNfdj-181" value="N:1" style="text;html=1;strokeColor=none;fillColor=none;align=center;verticalAlign=middle;whiteSpace=wrap;rounded=0;" parent="1" vertex="1">
          <mxGeometry x="780" y="865" width="60" height="30" as="geometry" />
        </mxCell>
        <mxCell id="Wo3q0FR-ISAkBuYLNfdj-182" value="N:1" style="text;html=1;strokeColor=none;fillColor=none;align=center;verticalAlign=middle;whiteSpace=wrap;rounded=0;" parent="1" vertex="1">
          <mxGeometry x="760" y="520" width="60" height="30" as="geometry" />
        </mxCell>
        <mxCell id="Wo3q0FR-ISAkBuYLNfdj-183" value="N:1" style="text;html=1;strokeColor=none;fillColor=none;align=center;verticalAlign=middle;whiteSpace=wrap;rounded=0;" parent="1" vertex="1">
          <mxGeometry x="675" y="915" width="60" height="30" as="geometry" />
        </mxCell>
        <mxCell id="Wo3q0FR-ISAkBuYLNfdj-184" value="N:1" style="text;html=1;strokeColor=none;fillColor=none;align=center;verticalAlign=middle;whiteSpace=wrap;rounded=0;" parent="1" vertex="1">
          <mxGeometry x="330" y="1150" width="60" height="30" as="geometry" />
        </mxCell>
        <mxCell id="Wo3q0FR-ISAkBuYLNfdj-185" value="1:N" style="text;html=1;strokeColor=none;fillColor=none;align=center;verticalAlign=middle;whiteSpace=wrap;rounded=0;" parent="1" vertex="1">
          <mxGeometry x="670" y="350" width="60" height="30" as="geometry" />
        </mxCell>
        <mxCell id="Wo3q0FR-ISAkBuYLNfdj-186" value="1:N" style="text;html=1;strokeColor=none;fillColor=none;align=center;verticalAlign=middle;whiteSpace=wrap;rounded=0;" parent="1" vertex="1">
          <mxGeometry x="440" y="260" width="60" height="30" as="geometry" />
        </mxCell>
        <mxCell id="Wo3q0FR-ISAkBuYLNfdj-187" value="N:1" style="text;html=1;strokeColor=none;fillColor=none;align=center;verticalAlign=middle;whiteSpace=wrap;rounded=0;" parent="1" vertex="1">
          <mxGeometry x="1040" y="10" width="60" height="30" as="geometry" />
        </mxCell>
        <mxCell id="Wo3q0FR-ISAkBuYLNfdj-188" value="N:N" style="text;html=1;strokeColor=none;fillColor=none;align=center;verticalAlign=middle;whiteSpace=wrap;rounded=0;" parent="1" vertex="1">
          <mxGeometry x="1290" y="570" width="60" height="30" as="geometry" />
        </mxCell>
        <mxCell id="OyvCqf2Fwu4o1YcODrox-3" style="edgeStyle=orthogonalEdgeStyle;rounded=0;orthogonalLoop=1;jettySize=auto;html=1;exitX=0.5;exitY=1;exitDx=0;exitDy=0;" parent="1" source="OyvCqf2Fwu4o1YcODrox-1" target="Wo3q0FR-ISAkBuYLNfdj-11" edge="1">
          <mxGeometry relative="1" as="geometry" />
        </mxCell>
        <mxCell id="OyvCqf2Fwu4o1YcODrox-1" value="Posee registro en" style="rhombus;whiteSpace=wrap;html=1;" parent="1" vertex="1">
          <mxGeometry x="970" y="160" width="110" height="80" as="geometry" />
        </mxCell>
        <mxCell id="ElhmosrxKKZjNARZ_xmM-6" style="edgeStyle=orthogonalEdgeStyle;rounded=0;orthogonalLoop=1;jettySize=auto;html=1;entryX=0.707;entryY=0.048;entryDx=0;entryDy=0;entryPerimeter=0;" parent="1" source="Wo3q0FR-ISAkBuYLNfdj-10" target="Wo3q0FR-ISAkBuYLNfdj-60" edge="1">
          <mxGeometry relative="1" as="geometry">
            <Array as="points">
              <mxPoint x="380" y="990" />
              <mxPoint x="125" y="990" />
            </Array>
          </mxGeometry>
        </mxCell>
        <mxCell id="ElhmosrxKKZjNARZ_xmM-13" style="edgeStyle=orthogonalEdgeStyle;rounded=0;orthogonalLoop=1;jettySize=auto;html=1;entryX=1;entryY=0.394;entryDx=0;entryDy=0;entryPerimeter=0;" parent="1" source="Wo3q0FR-ISAkBuYLNfdj-13" target="Wo3q0FR-ISAkBuYLNfdj-123" edge="1">
          <mxGeometry relative="1" as="geometry">
            <Array as="points">
              <mxPoint x="770" y="890" />
              <mxPoint x="770" y="632" />
            </Array>
          </mxGeometry>
        </mxCell>
        <mxCell id="ElhmosrxKKZjNARZ_xmM-16" style="edgeStyle=orthogonalEdgeStyle;rounded=0;orthogonalLoop=1;jettySize=auto;html=1;" parent="1" source="ElhmosrxKKZjNARZ_xmM-14" target="Wo3q0FR-ISAkBuYLNfdj-8" edge="1">
          <mxGeometry relative="1" as="geometry">
            <Array as="points">
              <mxPoint x="500" y="60" />
            </Array>
          </mxGeometry>
        </mxCell>
        <mxCell id="7sKFQ8EnV7iIlWdS504C-2" style="edgeStyle=orthogonalEdgeStyle;rounded=0;orthogonalLoop=1;jettySize=auto;html=1;" edge="1" parent="1" source="ElhmosrxKKZjNARZ_xmM-14" target="Wo3q0FR-ISAkBuYLNfdj-142">
          <mxGeometry relative="1" as="geometry">
            <Array as="points">
              <mxPoint x="520" y="330" />
              <mxPoint x="520" y="330" />
            </Array>
          </mxGeometry>
        </mxCell>
        <mxCell id="ElhmosrxKKZjNARZ_xmM-14" value="tienen" style="rhombus;whiteSpace=wrap;html=1;" parent="1" vertex="1">
          <mxGeometry x="450" y="500" width="90" height="80" as="geometry" />
        </mxCell>
        <mxCell id="ElhmosrxKKZjNARZ_xmM-19" style="edgeStyle=orthogonalEdgeStyle;rounded=0;orthogonalLoop=1;jettySize=auto;html=1;entryX=0.416;entryY=1.064;entryDx=0;entryDy=0;entryPerimeter=0;" parent="1" source="Wo3q0FR-ISAkBuYLNfdj-123" target="Wo3q0FR-ISAkBuYLNfdj-12" edge="1">
          <mxGeometry relative="1" as="geometry">
            <Array as="points">
              <mxPoint x="670" y="160" />
              <mxPoint x="760" y="160" />
            </Array>
          </mxGeometry>
        </mxCell>
        <mxCell id="ElhmosrxKKZjNARZ_xmM-23" style="edgeStyle=orthogonalEdgeStyle;rounded=0;orthogonalLoop=1;jettySize=auto;html=1;entryX=0.59;entryY=0.982;entryDx=0;entryDy=0;entryPerimeter=0;" parent="1" source="Wo3q0FR-ISAkBuYLNfdj-6" target="Wo3q0FR-ISAkBuYLNfdj-140" edge="1">
          <mxGeometry relative="1" as="geometry" />
        </mxCell>
        <mxCell id="7sKFQ8EnV7iIlWdS504C-1" style="edgeStyle=orthogonalEdgeStyle;rounded=0;orthogonalLoop=1;jettySize=auto;html=1;exitX=0.5;exitY=1;exitDx=0;exitDy=0;" edge="1" parent="1" source="Wo3q0FR-ISAkBuYLNfdj-6" target="Wo3q0FR-ISAkBuYLNfdj-6">
          <mxGeometry relative="1" as="geometry" />
        </mxCell>
        <mxCell id="7sKFQ8EnV7iIlWdS504C-4" style="edgeStyle=orthogonalEdgeStyle;rounded=0;orthogonalLoop=1;jettySize=auto;html=1;" edge="1" parent="1" source="7sKFQ8EnV7iIlWdS504C-3" target="Wo3q0FR-ISAkBuYLNfdj-13">
          <mxGeometry relative="1" as="geometry">
            <Array as="points">
              <mxPoint x="810" y="1020" />
              <mxPoint x="910" y="1020" />
            </Array>
          </mxGeometry>
        </mxCell>
        <mxCell id="7sKFQ8EnV7iIlWdS504C-3" value="&lt;b&gt;&lt;u&gt;valoracion_id&lt;/u&gt;&lt;/b&gt;" style="ellipse;whiteSpace=wrap;html=1;" vertex="1" parent="1">
          <mxGeometry x="750" y="1040" width="120" height="80" as="geometry" />
        </mxCell>
      </root>
    </mxGraphModel>
  </diagram>
</mxfile>
